<mxfile host="app.diagrams.net" modified="2023-09-15T20:38:43.646Z" agent="Mozilla/5.0 (Windows NT 10.0; Win64; x64; rv:109.0) Gecko/20100101 Firefox/117.0" etag="szQ9zRqDomo0yGX2Utla" version="21.7.5" type="github">
  <diagram name="Page-1" id="7In59A1sgAPbLbXznsLF">
    <mxGraphModel dx="792" dy="1105" grid="1" gridSize="10" guides="1" tooltips="1" connect="1" arrows="1" fold="1" page="1" pageScale="1" pageWidth="850" pageHeight="1100" math="0" shadow="0">
      <root>
        <mxCell id="0" />
        <mxCell id="1" parent="0" />
        <mxCell id="GX78M3u3ePjl-X8wYyLm-67" style="edgeStyle=orthogonalEdgeStyle;rounded=0;orthogonalLoop=1;jettySize=auto;html=1;exitX=0.5;exitY=1;exitDx=0;exitDy=0;" edge="1" parent="1" source="GX78M3u3ePjl-X8wYyLm-1" target="GX78M3u3ePjl-X8wYyLm-2">
          <mxGeometry relative="1" as="geometry" />
        </mxCell>
        <mxCell id="GX78M3u3ePjl-X8wYyLm-1" value="" style="ellipse;whiteSpace=wrap;html=1;aspect=fixed;" vertex="1" parent="1">
          <mxGeometry x="120" y="120" width="40" height="40" as="geometry" />
        </mxCell>
        <mxCell id="GX78M3u3ePjl-X8wYyLm-52" style="edgeStyle=orthogonalEdgeStyle;rounded=0;orthogonalLoop=1;jettySize=auto;html=1;exitX=1;exitY=0.5;exitDx=0;exitDy=0;entryX=0;entryY=0.5;entryDx=0;entryDy=0;" edge="1" parent="1" source="GX78M3u3ePjl-X8wYyLm-2" target="GX78M3u3ePjl-X8wYyLm-3">
          <mxGeometry relative="1" as="geometry" />
        </mxCell>
        <mxCell id="GX78M3u3ePjl-X8wYyLm-68" style="edgeStyle=orthogonalEdgeStyle;rounded=0;orthogonalLoop=1;jettySize=auto;html=1;exitX=0.5;exitY=1;exitDx=0;exitDy=0;" edge="1" parent="1" source="GX78M3u3ePjl-X8wYyLm-2" target="GX78M3u3ePjl-X8wYyLm-4">
          <mxGeometry relative="1" as="geometry" />
        </mxCell>
        <mxCell id="GX78M3u3ePjl-X8wYyLm-2" value="" style="ellipse;whiteSpace=wrap;html=1;aspect=fixed;" vertex="1" parent="1">
          <mxGeometry x="120" y="200" width="40" height="40" as="geometry" />
        </mxCell>
        <mxCell id="GX78M3u3ePjl-X8wYyLm-69" style="edgeStyle=orthogonalEdgeStyle;rounded=0;orthogonalLoop=1;jettySize=auto;html=1;exitX=0.5;exitY=1;exitDx=0;exitDy=0;" edge="1" parent="1" source="GX78M3u3ePjl-X8wYyLm-3" target="GX78M3u3ePjl-X8wYyLm-5">
          <mxGeometry relative="1" as="geometry" />
        </mxCell>
        <mxCell id="GX78M3u3ePjl-X8wYyLm-3" value="" style="ellipse;whiteSpace=wrap;html=1;aspect=fixed;" vertex="1" parent="1">
          <mxGeometry x="200" y="200" width="40" height="40" as="geometry" />
        </mxCell>
        <mxCell id="GX78M3u3ePjl-X8wYyLm-53" value="" style="edgeStyle=orthogonalEdgeStyle;rounded=0;orthogonalLoop=1;jettySize=auto;html=1;" edge="1" parent="1" source="GX78M3u3ePjl-X8wYyLm-4" target="GX78M3u3ePjl-X8wYyLm-5">
          <mxGeometry relative="1" as="geometry" />
        </mxCell>
        <mxCell id="GX78M3u3ePjl-X8wYyLm-70" style="edgeStyle=orthogonalEdgeStyle;rounded=0;orthogonalLoop=1;jettySize=auto;html=1;exitX=0.5;exitY=1;exitDx=0;exitDy=0;" edge="1" parent="1" source="GX78M3u3ePjl-X8wYyLm-4" target="GX78M3u3ePjl-X8wYyLm-7">
          <mxGeometry relative="1" as="geometry" />
        </mxCell>
        <mxCell id="GX78M3u3ePjl-X8wYyLm-4" value="" style="ellipse;whiteSpace=wrap;html=1;aspect=fixed;" vertex="1" parent="1">
          <mxGeometry x="120" y="280" width="40" height="40" as="geometry" />
        </mxCell>
        <mxCell id="GX78M3u3ePjl-X8wYyLm-54" value="" style="edgeStyle=orthogonalEdgeStyle;rounded=0;orthogonalLoop=1;jettySize=auto;html=1;" edge="1" parent="1" source="GX78M3u3ePjl-X8wYyLm-5" target="GX78M3u3ePjl-X8wYyLm-6">
          <mxGeometry relative="1" as="geometry" />
        </mxCell>
        <mxCell id="GX78M3u3ePjl-X8wYyLm-71" style="edgeStyle=orthogonalEdgeStyle;rounded=0;orthogonalLoop=1;jettySize=auto;html=1;exitX=0.5;exitY=1;exitDx=0;exitDy=0;" edge="1" parent="1" source="GX78M3u3ePjl-X8wYyLm-5" target="GX78M3u3ePjl-X8wYyLm-8">
          <mxGeometry relative="1" as="geometry" />
        </mxCell>
        <mxCell id="GX78M3u3ePjl-X8wYyLm-5" value="" style="ellipse;whiteSpace=wrap;html=1;aspect=fixed;" vertex="1" parent="1">
          <mxGeometry x="200" y="280" width="40" height="40" as="geometry" />
        </mxCell>
        <mxCell id="GX78M3u3ePjl-X8wYyLm-6" value="" style="ellipse;whiteSpace=wrap;html=1;aspect=fixed;" vertex="1" parent="1">
          <mxGeometry x="280" y="280" width="40" height="40" as="geometry" />
        </mxCell>
        <mxCell id="GX78M3u3ePjl-X8wYyLm-55" value="" style="edgeStyle=orthogonalEdgeStyle;rounded=0;orthogonalLoop=1;jettySize=auto;html=1;" edge="1" parent="1" source="GX78M3u3ePjl-X8wYyLm-7" target="GX78M3u3ePjl-X8wYyLm-8">
          <mxGeometry relative="1" as="geometry" />
        </mxCell>
        <mxCell id="GX78M3u3ePjl-X8wYyLm-73" value="" style="edgeStyle=orthogonalEdgeStyle;rounded=0;orthogonalLoop=1;jettySize=auto;html=1;" edge="1" parent="1" source="GX78M3u3ePjl-X8wYyLm-7">
          <mxGeometry relative="1" as="geometry">
            <mxPoint x="140" y="440" as="targetPoint" />
          </mxGeometry>
        </mxCell>
        <mxCell id="GX78M3u3ePjl-X8wYyLm-7" value="" style="ellipse;whiteSpace=wrap;html=1;aspect=fixed;" vertex="1" parent="1">
          <mxGeometry x="120" y="360" width="40" height="40" as="geometry" />
        </mxCell>
        <mxCell id="GX78M3u3ePjl-X8wYyLm-56" value="" style="edgeStyle=orthogonalEdgeStyle;rounded=0;orthogonalLoop=1;jettySize=auto;html=1;" edge="1" parent="1" source="GX78M3u3ePjl-X8wYyLm-8" target="GX78M3u3ePjl-X8wYyLm-9">
          <mxGeometry relative="1" as="geometry" />
        </mxCell>
        <mxCell id="GX78M3u3ePjl-X8wYyLm-76" value="" style="edgeStyle=orthogonalEdgeStyle;rounded=0;orthogonalLoop=1;jettySize=auto;html=1;" edge="1" parent="1" source="GX78M3u3ePjl-X8wYyLm-8">
          <mxGeometry relative="1" as="geometry">
            <mxPoint x="220" y="440" as="targetPoint" />
          </mxGeometry>
        </mxCell>
        <mxCell id="GX78M3u3ePjl-X8wYyLm-8" value="" style="ellipse;whiteSpace=wrap;html=1;aspect=fixed;" vertex="1" parent="1">
          <mxGeometry x="200" y="360" width="40" height="40" as="geometry" />
        </mxCell>
        <mxCell id="GX78M3u3ePjl-X8wYyLm-57" value="" style="edgeStyle=orthogonalEdgeStyle;rounded=0;orthogonalLoop=1;jettySize=auto;html=1;" edge="1" parent="1" source="GX78M3u3ePjl-X8wYyLm-9" target="GX78M3u3ePjl-X8wYyLm-10">
          <mxGeometry relative="1" as="geometry" />
        </mxCell>
        <mxCell id="GX78M3u3ePjl-X8wYyLm-77" value="" style="edgeStyle=orthogonalEdgeStyle;rounded=0;orthogonalLoop=1;jettySize=auto;html=1;" edge="1" parent="1" source="GX78M3u3ePjl-X8wYyLm-9">
          <mxGeometry relative="1" as="geometry">
            <mxPoint x="300" y="440" as="targetPoint" />
          </mxGeometry>
        </mxCell>
        <mxCell id="GX78M3u3ePjl-X8wYyLm-9" value="" style="ellipse;whiteSpace=wrap;html=1;aspect=fixed;" vertex="1" parent="1">
          <mxGeometry x="280" y="360" width="40" height="40" as="geometry" />
        </mxCell>
        <mxCell id="GX78M3u3ePjl-X8wYyLm-80" value="" style="edgeStyle=orthogonalEdgeStyle;rounded=0;orthogonalLoop=1;jettySize=auto;html=1;" edge="1" parent="1" source="GX78M3u3ePjl-X8wYyLm-10">
          <mxGeometry relative="1" as="geometry">
            <mxPoint x="380" y="440" as="targetPoint" />
            <Array as="points">
              <mxPoint x="380" y="440" />
              <mxPoint x="380" y="440" />
            </Array>
          </mxGeometry>
        </mxCell>
        <mxCell id="GX78M3u3ePjl-X8wYyLm-10" value="" style="ellipse;whiteSpace=wrap;html=1;aspect=fixed;" vertex="1" parent="1">
          <mxGeometry x="360" y="360" width="40" height="40" as="geometry" />
        </mxCell>
        <mxCell id="GX78M3u3ePjl-X8wYyLm-59" style="edgeStyle=orthogonalEdgeStyle;rounded=0;orthogonalLoop=1;jettySize=auto;html=1;exitX=1;exitY=0.5;exitDx=0;exitDy=0;" edge="1" parent="1" source="GX78M3u3ePjl-X8wYyLm-11" target="GX78M3u3ePjl-X8wYyLm-12">
          <mxGeometry relative="1" as="geometry" />
        </mxCell>
        <mxCell id="GX78M3u3ePjl-X8wYyLm-74" value="" style="edgeStyle=orthogonalEdgeStyle;rounded=0;orthogonalLoop=1;jettySize=auto;html=1;" edge="1" parent="1" source="GX78M3u3ePjl-X8wYyLm-11" target="GX78M3u3ePjl-X8wYyLm-45">
          <mxGeometry relative="1" as="geometry" />
        </mxCell>
        <mxCell id="GX78M3u3ePjl-X8wYyLm-11" value="" style="ellipse;whiteSpace=wrap;html=1;aspect=fixed;" vertex="1" parent="1">
          <mxGeometry x="120" y="480" width="40" height="40" as="geometry" />
        </mxCell>
        <mxCell id="GX78M3u3ePjl-X8wYyLm-60" style="edgeStyle=orthogonalEdgeStyle;rounded=0;orthogonalLoop=1;jettySize=auto;html=1;exitX=1;exitY=0.5;exitDx=0;exitDy=0;entryX=0;entryY=0.5;entryDx=0;entryDy=0;" edge="1" parent="1" source="GX78M3u3ePjl-X8wYyLm-12" target="GX78M3u3ePjl-X8wYyLm-13">
          <mxGeometry relative="1" as="geometry" />
        </mxCell>
        <mxCell id="GX78M3u3ePjl-X8wYyLm-81" style="edgeStyle=orthogonalEdgeStyle;rounded=0;orthogonalLoop=1;jettySize=auto;html=1;exitX=0.5;exitY=1;exitDx=0;exitDy=0;" edge="1" parent="1" source="GX78M3u3ePjl-X8wYyLm-12" target="GX78M3u3ePjl-X8wYyLm-46">
          <mxGeometry relative="1" as="geometry" />
        </mxCell>
        <mxCell id="GX78M3u3ePjl-X8wYyLm-12" value="" style="ellipse;whiteSpace=wrap;html=1;aspect=fixed;" vertex="1" parent="1">
          <mxGeometry x="200" y="480" width="40" height="40" as="geometry" />
        </mxCell>
        <mxCell id="GX78M3u3ePjl-X8wYyLm-61" style="edgeStyle=orthogonalEdgeStyle;rounded=0;orthogonalLoop=1;jettySize=auto;html=1;exitX=1;exitY=0.5;exitDx=0;exitDy=0;entryX=0;entryY=0.5;entryDx=0;entryDy=0;" edge="1" parent="1" source="GX78M3u3ePjl-X8wYyLm-13" target="GX78M3u3ePjl-X8wYyLm-14">
          <mxGeometry relative="1" as="geometry" />
        </mxCell>
        <mxCell id="GX78M3u3ePjl-X8wYyLm-82" style="edgeStyle=orthogonalEdgeStyle;rounded=0;orthogonalLoop=1;jettySize=auto;html=1;exitX=0.5;exitY=1;exitDx=0;exitDy=0;" edge="1" parent="1" source="GX78M3u3ePjl-X8wYyLm-13" target="GX78M3u3ePjl-X8wYyLm-47">
          <mxGeometry relative="1" as="geometry" />
        </mxCell>
        <mxCell id="GX78M3u3ePjl-X8wYyLm-13" value="" style="ellipse;whiteSpace=wrap;html=1;aspect=fixed;" vertex="1" parent="1">
          <mxGeometry x="280" y="480" width="40" height="40" as="geometry" />
        </mxCell>
        <mxCell id="GX78M3u3ePjl-X8wYyLm-83" value="" style="edgeStyle=orthogonalEdgeStyle;rounded=0;orthogonalLoop=1;jettySize=auto;html=1;" edge="1" parent="1" source="GX78M3u3ePjl-X8wYyLm-14" target="GX78M3u3ePjl-X8wYyLm-48">
          <mxGeometry relative="1" as="geometry" />
        </mxCell>
        <mxCell id="GX78M3u3ePjl-X8wYyLm-14" value="" style="ellipse;whiteSpace=wrap;html=1;aspect=fixed;" vertex="1" parent="1">
          <mxGeometry x="360" y="480" width="40" height="40" as="geometry" />
        </mxCell>
        <mxCell id="GX78M3u3ePjl-X8wYyLm-84" value="" style="edgeStyle=orthogonalEdgeStyle;rounded=0;orthogonalLoop=1;jettySize=auto;html=1;" edge="1" parent="1" source="GX78M3u3ePjl-X8wYyLm-15" target="GX78M3u3ePjl-X8wYyLm-58">
          <mxGeometry relative="1" as="geometry" />
        </mxCell>
        <mxCell id="GX78M3u3ePjl-X8wYyLm-15" value="" style="ellipse;whiteSpace=wrap;html=1;aspect=fixed;" vertex="1" parent="1">
          <mxGeometry x="480" y="480" width="40" height="40" as="geometry" />
        </mxCell>
        <mxCell id="GX78M3u3ePjl-X8wYyLm-17" value="i=1" style="text;html=1;strokeColor=none;fillColor=none;align=center;verticalAlign=middle;whiteSpace=wrap;rounded=0;" vertex="1" parent="1">
          <mxGeometry x="30" y="125" width="60" height="30" as="geometry" />
        </mxCell>
        <mxCell id="GX78M3u3ePjl-X8wYyLm-18" value="i=2" style="text;html=1;strokeColor=none;fillColor=none;align=center;verticalAlign=middle;whiteSpace=wrap;rounded=0;" vertex="1" parent="1">
          <mxGeometry x="30" y="205" width="60" height="30" as="geometry" />
        </mxCell>
        <mxCell id="GX78M3u3ePjl-X8wYyLm-21" value="i=3" style="text;html=1;strokeColor=none;fillColor=none;align=center;verticalAlign=middle;whiteSpace=wrap;rounded=0;" vertex="1" parent="1">
          <mxGeometry x="30" y="285" width="60" height="30" as="geometry" />
        </mxCell>
        <mxCell id="GX78M3u3ePjl-X8wYyLm-22" value="i=4" style="text;html=1;strokeColor=none;fillColor=none;align=center;verticalAlign=middle;whiteSpace=wrap;rounded=0;" vertex="1" parent="1">
          <mxGeometry x="30" y="365" width="60" height="30" as="geometry" />
        </mxCell>
        <mxCell id="GX78M3u3ePjl-X8wYyLm-23" value="i=N-1" style="text;html=1;strokeColor=none;fillColor=none;align=center;verticalAlign=middle;whiteSpace=wrap;rounded=0;" vertex="1" parent="1">
          <mxGeometry x="30" y="485" width="60" height="30" as="geometry" />
        </mxCell>
        <mxCell id="GX78M3u3ePjl-X8wYyLm-24" value="j=1" style="text;html=1;strokeColor=none;fillColor=none;align=center;verticalAlign=middle;whiteSpace=wrap;rounded=0;" vertex="1" parent="1">
          <mxGeometry x="110" y="50" width="60" height="30" as="geometry" />
        </mxCell>
        <mxCell id="GX78M3u3ePjl-X8wYyLm-25" value="j=2" style="text;html=1;strokeColor=none;fillColor=none;align=center;verticalAlign=middle;whiteSpace=wrap;rounded=0;" vertex="1" parent="1">
          <mxGeometry x="190" y="50" width="60" height="30" as="geometry" />
        </mxCell>
        <mxCell id="GX78M3u3ePjl-X8wYyLm-26" value="&lt;div&gt;j=3&lt;/div&gt;" style="text;html=1;strokeColor=none;fillColor=none;align=center;verticalAlign=middle;whiteSpace=wrap;rounded=0;" vertex="1" parent="1">
          <mxGeometry x="270" y="50" width="60" height="30" as="geometry" />
        </mxCell>
        <mxCell id="GX78M3u3ePjl-X8wYyLm-28" value="j=4" style="text;html=1;strokeColor=none;fillColor=none;align=center;verticalAlign=middle;whiteSpace=wrap;rounded=0;" vertex="1" parent="1">
          <mxGeometry x="350" y="50" width="60" height="30" as="geometry" />
        </mxCell>
        <mxCell id="GX78M3u3ePjl-X8wYyLm-29" value="j=N" style="text;html=1;strokeColor=none;fillColor=none;align=center;verticalAlign=middle;whiteSpace=wrap;rounded=0;" vertex="1" parent="1">
          <mxGeometry x="550" y="50" width="60" height="30" as="geometry" />
        </mxCell>
        <mxCell id="GX78M3u3ePjl-X8wYyLm-62" style="edgeStyle=orthogonalEdgeStyle;rounded=0;orthogonalLoop=1;jettySize=auto;html=1;entryX=0;entryY=0.5;entryDx=0;entryDy=0;" edge="1" parent="1" source="GX78M3u3ePjl-X8wYyLm-45" target="GX78M3u3ePjl-X8wYyLm-46">
          <mxGeometry relative="1" as="geometry" />
        </mxCell>
        <mxCell id="GX78M3u3ePjl-X8wYyLm-45" value="" style="ellipse;whiteSpace=wrap;html=1;aspect=fixed;" vertex="1" parent="1">
          <mxGeometry x="120" y="560" width="40" height="40" as="geometry" />
        </mxCell>
        <mxCell id="GX78M3u3ePjl-X8wYyLm-63" style="edgeStyle=orthogonalEdgeStyle;rounded=0;orthogonalLoop=1;jettySize=auto;html=1;entryX=0;entryY=0.5;entryDx=0;entryDy=0;" edge="1" parent="1" source="GX78M3u3ePjl-X8wYyLm-46" target="GX78M3u3ePjl-X8wYyLm-47">
          <mxGeometry relative="1" as="geometry" />
        </mxCell>
        <mxCell id="GX78M3u3ePjl-X8wYyLm-46" value="" style="ellipse;whiteSpace=wrap;html=1;aspect=fixed;" vertex="1" parent="1">
          <mxGeometry x="200" y="560" width="40" height="40" as="geometry" />
        </mxCell>
        <mxCell id="GX78M3u3ePjl-X8wYyLm-64" style="edgeStyle=orthogonalEdgeStyle;rounded=0;orthogonalLoop=1;jettySize=auto;html=1;entryX=0;entryY=0.5;entryDx=0;entryDy=0;" edge="1" parent="1" source="GX78M3u3ePjl-X8wYyLm-47" target="GX78M3u3ePjl-X8wYyLm-48">
          <mxGeometry relative="1" as="geometry" />
        </mxCell>
        <mxCell id="GX78M3u3ePjl-X8wYyLm-47" value="" style="ellipse;whiteSpace=wrap;html=1;aspect=fixed;" vertex="1" parent="1">
          <mxGeometry x="280" y="560" width="40" height="40" as="geometry" />
        </mxCell>
        <mxCell id="GX78M3u3ePjl-X8wYyLm-65" style="edgeStyle=orthogonalEdgeStyle;rounded=0;orthogonalLoop=1;jettySize=auto;html=1;" edge="1" parent="1" source="GX78M3u3ePjl-X8wYyLm-48">
          <mxGeometry relative="1" as="geometry">
            <mxPoint x="430" y="580" as="targetPoint" />
          </mxGeometry>
        </mxCell>
        <mxCell id="GX78M3u3ePjl-X8wYyLm-48" value="" style="ellipse;whiteSpace=wrap;html=1;aspect=fixed;" vertex="1" parent="1">
          <mxGeometry x="360" y="560" width="40" height="40" as="geometry" />
        </mxCell>
        <mxCell id="GX78M3u3ePjl-X8wYyLm-49" value="" style="ellipse;whiteSpace=wrap;html=1;aspect=fixed;" vertex="1" parent="1">
          <mxGeometry x="560" y="560" width="40" height="40" as="geometry" />
        </mxCell>
        <mxCell id="GX78M3u3ePjl-X8wYyLm-50" value="i=N" style="text;html=1;strokeColor=none;fillColor=none;align=center;verticalAlign=middle;whiteSpace=wrap;rounded=0;" vertex="1" parent="1">
          <mxGeometry x="30" y="565" width="60" height="30" as="geometry" />
        </mxCell>
        <mxCell id="GX78M3u3ePjl-X8wYyLm-66" style="edgeStyle=orthogonalEdgeStyle;rounded=0;orthogonalLoop=1;jettySize=auto;html=1;" edge="1" parent="1" source="GX78M3u3ePjl-X8wYyLm-58" target="GX78M3u3ePjl-X8wYyLm-49">
          <mxGeometry relative="1" as="geometry" />
        </mxCell>
        <mxCell id="GX78M3u3ePjl-X8wYyLm-58" value="" style="ellipse;whiteSpace=wrap;html=1;aspect=fixed;" vertex="1" parent="1">
          <mxGeometry x="480" y="560" width="40" height="40" as="geometry" />
        </mxCell>
      </root>
    </mxGraphModel>
  </diagram>
</mxfile>
